<?xml version="1.0" encoding="utf-8"?>
<!-- Generator: Adobe Illustrator 16.0.0, SVG Export Plug-In . SVG Version: 6.00 Build 0)  -->
<!DOCTYPE svg PUBLIC "-//W3C//DTD SVG 1.1//EN" "http://www.w3.org/Graphics/SVG/1.1/DTD/svg11.dtd">
<svg version="1.1" id="Layer_1" xmlns="http://www.w3.org/2000/svg" xmlns:xlink="http://www.w3.org/1999/xlink" x="0px" y="0px"
	 width="850.39px" height="850.39px" viewBox="0 0 850.39 850.39" enable-background="new 0 0 850.39 850.39" xml:space="preserve">
<g id="body">
	<path d="M468.407,348.901c0,20.398-16.534,36.935-36.938,36.935c-20.398,0-36.937-16.537-36.937-36.935
		c0-20.401,16.539-36.938,36.937-36.938C451.873,311.963,468.407,328.5,468.407,348.901z"/>
	<path d="M468.407,551.786c0,13.464-14.827,24.387-33.128,24.387h-11.96c-18.297,0-33.131-10.923-33.131-24.387V416.31
		c0-13.47,14.834-24.388,33.131-24.388h11.96c18.301,0,33.128,10.918,33.128,24.388V551.786z"/>
</g>
<g id="left">
	<g>
		<rect x="484.268" y="504.359" width="12.182" height="243.787"/>
		<g>
			<g id="XMLID_4_">
				<g>
					<polygon fill="#ED1F24" points="372.065,748.139 372.065,635.921 484.283,635.921 					"/>
				</g>
				<g>
				</g>
			</g>
		</g>
		<g>
			<g id="XMLID_2_">
				<g>
					<polygon fill="#F6DB0C" points="484.268,635.918 484.276,748.136 372.059,748.145 					"/>
				</g>
				<g>
				</g>
			</g>
		</g>
	</g>
	<path id="leftHand" d="M487.696,499.798c-8.157,0-14.772-6.615-14.772-14.771l0.001-66.055
		c-0.001-8.162,6.613-14.777,14.772-14.775l0,0c8.159,0,14.776,6.613,14.777,14.774v66.052
		C502.475,493.183,495.856,499.798,487.696,499.798L487.696,499.798z"/>
</g>
<g id="right">
	<g>
		<rect x="360.722" y="505.867" width="12.181" height="243.786"/>
		<g>
			<g id="XMLID_3_">
				<g>
					<polygon fill="#ED1F24" points="485.107,749.648 485.107,637.431 372.889,637.431 					"/>
				</g>
				<g>
				</g>
			</g>
		</g>
		<g>
			<g id="XMLID_1_">
				<g>
					<polygon fill="#F6DB0C" points="372.905,637.428 372.896,749.646 485.114,749.654 					"/>
				</g>
				<g>
				</g>
			</g>
		</g>
	</g>
	<path id="rightHand" d="M369.146,402.692c8.157-0.002,14.772,6.615,14.773,14.773l0,66.05c-0.001,8.166-6.617,14.781-14.773,14.781
		l0,0c-8.165,0-14.777-6.615-14.778-14.782v-66.048C354.369,409.307,360.981,402.691,369.146,402.692L369.146,402.692z"/>
</g>
</svg>
