<?xml version="1.0" encoding="utf-8"?>
<!-- Generator: Adobe Illustrator 16.0.0, SVG Export Plug-In . SVG Version: 6.00 Build 0)  -->
<!DOCTYPE svg PUBLIC "-//W3C//DTD SVG 1.1//EN" "http://www.w3.org/Graphics/SVG/1.1/DTD/svg11.dtd">
<svg version="1.1" id="Layer_1" xmlns="http://www.w3.org/2000/svg" xmlns:xlink="http://www.w3.org/1999/xlink" x="0px" y="0px"
	 width="850.39px" height="850.39px" viewBox="0 0 850.39 850.39" enable-background="new 0 0 850.39 850.39" xml:space="preserve">
<g id="body">
	<path d="M468.407,348.901c0,20.398-16.534,36.935-36.938,36.935c-20.398,0-36.937-16.537-36.937-36.935
		c0-20.401,16.539-36.938,36.937-36.938C451.873,311.963,468.407,328.5,468.407,348.901z"/>
	<path d="M468.407,551.786c0,13.464-14.827,24.387-33.128,24.387h-11.96c-18.297,0-33.131-10.923-33.131-24.387V416.31
		c0-13.47,14.834-24.388,33.131-24.388h11.96c18.301,0,33.128,10.918,33.128,24.388V551.786z"/>
</g>
<g id="left">
	<g>
		
			<rect x="100.631" y="250.396" transform="matrix(-0.7071 -0.7071 0.7071 -0.7071 198.5091 595.1996)" width="243.786" height="12.182"/>
		<g>
			<g id="XMLID_4_">
				<g>
					<polygon fill="#ED1F24" points="52.691,253.947 132.042,333.297 211.392,253.947 					"/>
				</g>
				<g>
				</g>
			</g>
		</g>
		<g>
			<g id="XMLID_2_">
				<g>
					<polygon fill="#F6DB0C" points="211.382,253.96 132.039,174.604 52.682,253.948 					"/>
				</g>
				<g>
				</g>
			</g>
		</g>
	</g>
	<path id="leftHand" d="M310.059,347.786c-5.77,5.769-5.769,15.124,0,20.893l46.706,46.706c5.771,5.771,15.125,5.771,20.895,0.001
		l0,0c5.769-5.769,5.771-15.125,0-20.896l-46.706-46.707C325.185,342.015,315.829,342.017,310.059,347.786L310.059,347.786z"/>
</g>
<g id="right">
	<g>
		<rect x="494.199" y="507.951" width="12.182" height="243.787"/>
		<g>
			<g id="XMLID_3_">
				<g>
					<polygon fill="#ED1F24" points="381.998,751.731 381.998,639.514 494.216,639.514 					"/>
				</g>
				<g>
				</g>
			</g>
		</g>
		<g>
			<g id="XMLID_1_">
				<g>
					<polygon fill="#F6DB0C" points="494.2,639.512 494.208,751.729 381.99,751.737 					"/>
				</g>
				<g>
				</g>
			</g>
		</g>
	</g>
	<path id="rightHand" d="M497.958,404.776c-8.158,0-14.773,6.616-14.773,14.775v66.049c0,8.164,6.615,14.781,14.773,14.781l0,0
		c8.163,0,14.777-6.617,14.777-14.781v-66.049C512.735,411.392,506.121,404.776,497.958,404.776L497.958,404.776z"/>
</g>
</svg>
