<?xml version="1.0" encoding="utf-8"?>
<!-- Generator: Adobe Illustrator 16.0.0, SVG Export Plug-In . SVG Version: 6.00 Build 0)  -->
<!DOCTYPE svg PUBLIC "-//W3C//DTD SVG 1.1//EN" "http://www.w3.org/Graphics/SVG/1.1/DTD/svg11.dtd">
<svg version="1.1" id="Layer_1" xmlns="http://www.w3.org/2000/svg" xmlns:xlink="http://www.w3.org/1999/xlink" x="0px" y="0px"
	 width="850.39px" height="850.39px" viewBox="0 0 850.39 850.39" enable-background="new 0 0 850.39 850.39" xml:space="preserve">
<g id="body">
	<path d="M468.407,348.901c0,20.398-16.534,36.935-36.938,36.935c-20.398,0-36.937-16.537-36.937-36.935
		c0-20.401,16.539-36.938,36.937-36.938C451.873,311.963,468.407,328.5,468.407,348.901z"/>
	<path d="M468.407,551.786c0,13.464-14.827,24.387-33.128,24.387h-11.96c-18.297,0-33.131-10.923-33.131-24.387V416.31
		c0-13.47,14.834-24.388,33.131-24.388h11.96c18.301,0,33.128,10.918,33.128,24.388V551.786z"/>
</g>
<g id="left">
	<g>
		<rect x="348.862" y="507.951" width="12.182" height="243.787"/>
		<g>
			<g id="XMLID_4_">
				<g>
					<polygon fill="#ED1F24" points="473.246,751.73 473.246,639.513 361.028,639.513 					"/>
				</g>
				<g>
				</g>
			</g>
		</g>
		<g>
			<g id="XMLID_2_">
				<g>
					<polygon fill="#F6DB0C" points="361.044,639.51 361.036,751.728 473.254,751.736 					"/>
				</g>
				<g>
				</g>
			</g>
		</g>
	</g>
	<path id="leftHand" d="M357.614,503.39c8.159,0.001,14.774-6.614,14.773-14.772v-66.053c0-8.161-6.615-14.775-14.774-14.775l0,0
		c-8.158,0-14.776,6.614-14.776,14.775l0,66.053C342.837,496.775,349.455,503.39,357.614,503.39L357.614,503.39z"/>
</g>
<g id="right">
	<g>
		
			<rect x="514.514" y="253.981" transform="matrix(0.7071 -0.7071 0.7071 0.7071 2.5017 526.1832)" width="243.787" height="12.182"/>
		<g>
			<g id="XMLID_3_">
				<g>
					<polygon fill="#ED1F24" points="806.24,257.53 726.891,336.88 647.54,257.53 					"/>
				</g>
				<g>
				</g>
			</g>
		</g>
		<g>
			<g id="XMLID_1_">
				<g>
					<polygon fill="#F6DB0C" points="647.55,257.543 726.894,178.187 806.25,257.531 					"/>
				</g>
				<g>
				</g>
			</g>
		</g>
	</g>
	<path id="rightHand" d="M478.909,420.869c5.769,5.768,15.124,5.768,20.894-0.001l46.705-46.704
		c5.771-5.773,5.773-15.13,0.005-20.898l0,0c-5.772-5.772-15.128-5.771-20.901,0.003l-46.703,46.704
		C473.139,405.742,473.137,415.096,478.909,420.869L478.909,420.869z"/>
</g>
</svg>
