<?xml version="1.0" encoding="utf-8"?>
<!-- Generator: Adobe Illustrator 16.0.0, SVG Export Plug-In . SVG Version: 6.00 Build 0)  -->
<!DOCTYPE svg PUBLIC "-//W3C//DTD SVG 1.1//EN" "http://www.w3.org/Graphics/SVG/1.1/DTD/svg11.dtd">
<svg version="1.1" id="Layer_1" xmlns="http://www.w3.org/2000/svg" xmlns:xlink="http://www.w3.org/1999/xlink" x="0px" y="0px"
	 width="850.39px" height="850.39px" viewBox="0 0 850.39 850.39" enable-background="new 0 0 850.39 850.39" xml:space="preserve">
<g id="body">
	<path d="M468.407,348.901c0,20.398-16.534,36.935-36.938,36.935c-20.398,0-36.937-16.537-36.937-36.935
		c0-20.401,16.539-36.938,36.937-36.938C451.873,311.963,468.407,328.5,468.407,348.901z"/>
	<path d="M468.407,551.786c0,13.464-14.827,24.387-33.128,24.387h-11.96c-18.297,0-33.131-10.923-33.131-24.387V416.31
		c0-13.47,14.834-24.388,33.131-24.388h11.96c18.301,0,33.128,10.918,33.128,24.388V551.786z"/>
</g>
<g id="left">
	<g>
		<rect x="348.862" y="507.951" width="12.182" height="243.787"/>
		<g>
			<g id="XMLID_4_">
				<g>
					<polygon fill="#ED1F24" points="473.246,751.73 473.246,639.513 361.028,639.513 					"/>
				</g>
				<g>
				</g>
			</g>
		</g>
		<g>
			<g id="XMLID_2_">
				<g>
					<polygon fill="#F6DB0C" points="361.044,639.51 361.036,751.728 473.254,751.736 					"/>
				</g>
				<g>
				</g>
			</g>
		</g>
	</g>
	<path id="leftHand" d="M357.614,503.39c8.159,0.001,14.774-6.614,14.773-14.772v-66.053c0-8.161-6.615-14.775-14.774-14.775l0,0
		c-8.158,0-14.776,6.614-14.776,14.775l0,66.053C342.837,496.775,349.455,503.39,357.614,503.39L357.614,503.39z"/>
</g>
<g id="right">
	<g>
		
			<rect x="531.746" y="563.524" transform="matrix(0.7071 0.7071 -0.7071 0.7071 594.2206 -295.3554)" width="243.786" height="12.183"/>
		<g>
			<g id="XMLID_3_">
				<g>
					<polygon fill="#ED1F24" points="656.18,739.449 576.83,660.099 656.18,580.749 					"/>
				</g>
				<g>
				</g>
			</g>
		</g>
		<g>
			<g id="XMLID_1_">
				<g>
					<polygon fill="#F6DB0C" points="656.167,580.758 735.522,660.103 656.179,739.458 					"/>
				</g>
				<g>
				</g>
			</g>
		</g>
	</g>
	<path id="rightHand" d="M492.842,412.118c-5.769,5.769-5.769,15.124,0,20.894l46.704,46.705c5.774,5.771,15.13,5.772,20.898,0.004
		l0,0c5.772-5.772,5.771-15.127-0.003-20.9l-46.703-46.704C507.969,406.347,498.614,406.345,492.842,412.118L492.842,412.118z"/>
</g>
</svg>
