<?xml version="1.0" encoding="utf-8"?>
<!-- Generator: Adobe Illustrator 16.0.0, SVG Export Plug-In . SVG Version: 6.00 Build 0)  -->
<!DOCTYPE svg PUBLIC "-//W3C//DTD SVG 1.1//EN" "http://www.w3.org/Graphics/SVG/1.1/DTD/svg11.dtd">
<svg version="1.1" id="Layer_1" xmlns="http://www.w3.org/2000/svg" xmlns:xlink="http://www.w3.org/1999/xlink" x="0px" y="0px"
	 width="850.39px" height="850.39px" viewBox="0 0 850.39 850.39" enable-background="new 0 0 850.39 850.39" xml:space="preserve">
<g id="body">
	<path d="M468.407,348.901c0,20.398-16.534,36.935-36.938,36.935c-20.398,0-36.937-16.537-36.937-36.935
		c0-20.401,16.539-36.938,36.937-36.938C451.873,311.963,468.407,328.5,468.407,348.901z"/>
	<path d="M468.407,551.786c0,13.464-14.827,24.387-33.128,24.387h-11.96c-18.297,0-33.131-10.923-33.131-24.387V416.31
		c0-13.47,14.834-24.388,33.131-24.388h11.96c18.301,0,33.128,10.918,33.128,24.388V551.786z"/>
</g>
<g id="left">
	<g>
		
			<rect x="95.722" y="578.567" transform="matrix(-0.7071 0.7071 -0.7071 -0.7071 784.9086 844.1959)" width="243.787" height="12.182"/>
		<g>
			<g id="XMLID_4_">
				<g>
					<polygon fill="#ED1F24" points="215.076,754.491 294.426,675.141 215.076,595.791 					"/>
				</g>
				<g>
				</g>
			</g>
		</g>
		<g>
			<g id="XMLID_2_">
				<g>
					<polygon fill="#F6DB0C" points="215.089,595.8 135.732,675.145 215.077,754.5 					"/>
				</g>
				<g>
				</g>
			</g>
		</g>
	</g>
	<path id="leftHand" d="M308.915,497.123c5.769,5.77,15.124,5.77,20.892,0.001l46.707-46.707c5.771-5.771,5.771-15.125,0.001-20.894
		l0,0c-5.769-5.77-15.125-5.772-20.896-0.002l-46.707,46.707C303.143,481.997,303.145,491.354,308.915,497.123L308.915,497.123z"/>
</g>
<g id="right">
	<g>
		<rect x="40.824" y="398.274" width="243.786" height="12.184"/>
		<g>
			<g id="XMLID_3_">
				<g>
					<polygon fill="#ED1F24" points="40.83,522.659 153.048,522.659 153.048,410.441 					"/>
				</g>
				<g>
				</g>
			</g>
		</g>
		<g>
			<g id="XMLID_1_">
				<g>
					<polygon fill="#F6DB0C" points="153.051,410.457 40.833,410.448 40.825,522.666 					"/>
				</g>
				<g>
				</g>
			</g>
		</g>
	</g>
	<path id="rightHand" d="M387.786,406.699c0,8.158-6.615,14.772-14.774,14.774l-66.05,0.001c-8.165-0.003-14.78-6.617-14.78-14.775
		l0,0c0-8.163,6.615-14.777,14.78-14.776l66.049-0.001C381.169,391.921,387.786,398.535,387.786,406.699L387.786,406.699z"/>
</g>
</svg>
