<?xml version="1.0" encoding="utf-8"?>
<!-- Generator: Adobe Illustrator 16.0.0, SVG Export Plug-In . SVG Version: 6.00 Build 0)  -->
<!DOCTYPE svg PUBLIC "-//W3C//DTD SVG 1.1//EN" "http://www.w3.org/Graphics/SVG/1.1/DTD/svg11.dtd">
<svg version="1.1" id="Layer_1" xmlns="http://www.w3.org/2000/svg" xmlns:xlink="http://www.w3.org/1999/xlink" x="0px" y="0px"
	 width="850.39px" height="850.39px" viewBox="0 0 850.39 850.39" enable-background="new 0 0 850.39 850.39" xml:space="preserve">
<g id="body">
	<path d="M468.407,348.901c0,20.398-16.534,36.935-36.938,36.935c-20.398,0-36.937-16.537-36.937-36.935
		c0-20.401,16.539-36.938,36.937-36.938C451.873,311.963,468.407,328.5,468.407,348.901z"/>
	<path d="M468.407,551.786c0,13.464-14.827,24.387-33.128,24.387h-11.96c-18.297,0-33.131-10.923-33.131-24.387V416.31
		c0-13.47,14.834-24.388,33.131-24.388h11.96c18.301,0,33.128,10.918,33.128,24.388V551.786z"/>
</g>
<g id="left">
	<g>
		<rect x="577.129" y="408.074" width="243.787" height="12.183"/>
		<g>
			<g id="XMLID_4_">
				<g>
					<polygon fill="#ED1F24" points="820.908,532.459 708.69,532.459 708.69,420.241 					"/>
				</g>
				<g>
				</g>
			</g>
		</g>
		<g>
			<g id="XMLID_2_">
				<g>
					<polygon fill="#F6DB0C" points="708.688,420.256 820.906,420.248 820.914,532.466 					"/>
				</g>
				<g>
				</g>
			</g>
		</g>
	</g>
	<path id="leftHand" d="M572.567,416.827c0.001,8.158-6.614,14.773-14.771,14.773h-66.054c-8.161,0-14.775-6.614-14.775-14.773l0,0
		c0-8.159,6.613-14.776,14.775-14.777h66.053C565.953,402.05,572.567,408.667,572.567,416.827L572.567,416.827z"/>
</g>
<g id="right">
	<g>
		<rect x="362.305" y="70.26" width="12.183" height="243.786"/>
		<g>
			<g id="XMLID_3_">
				<g>
					<polygon fill="#ED1F24" points="250.104,70.266 250.104,182.484 362.321,182.484 					"/>
				</g>
				<g>
				</g>
			</g>
		</g>
		<g>
			<g id="XMLID_1_">
				<g>
					<polygon fill="#F6DB0C" points="362.306,182.486 362.314,70.269 250.096,70.26 					"/>
				</g>
				<g>
				</g>
			</g>
		</g>
	</g>
	<path id="rightHand" d="M366.064,417.222c-8.158,0-14.772-6.616-14.774-14.774l-0.001-66.05
		c0.003-8.166,6.618-14.781,14.775-14.781l0,0c8.164,0,14.777,6.615,14.776,14.781l0.001,66.049
		C380.841,410.605,374.228,417.222,366.064,417.222L366.064,417.222z"/>
</g>
</svg>
