<?xml version="1.0" encoding="utf-8"?>
<!-- Generator: Adobe Illustrator 16.0.0, SVG Export Plug-In . SVG Version: 6.00 Build 0)  -->
<!DOCTYPE svg PUBLIC "-//W3C//DTD SVG 1.1//EN" "http://www.w3.org/Graphics/SVG/1.1/DTD/svg11.dtd">
<svg version="1.1" id="Layer_1" xmlns="http://www.w3.org/2000/svg" xmlns:xlink="http://www.w3.org/1999/xlink" x="0px" y="0px"
	 width="850.39px" height="850.39px" viewBox="0 0 850.39 850.39" enable-background="new 0 0 850.39 850.39" xml:space="preserve">
<g id="body">
	<path d="M468.407,348.901c0,20.398-16.534,36.935-36.938,36.935c-20.398,0-36.937-16.537-36.937-36.935
		c0-20.401,16.539-36.938,36.937-36.938C451.873,311.963,468.407,328.5,468.407,348.901z"/>
	<path d="M468.407,551.786c0,13.464-14.827,24.387-33.128,24.387h-11.96c-18.297,0-33.131-10.923-33.131-24.387V416.31
		c0-13.47,14.834-24.388,33.131-24.388h11.96c18.301,0,33.128,10.918,33.128,24.388V551.786z"/>
</g>
<g id="left">
	<g>
		
			<rect x="95.722" y="578.567" transform="matrix(-0.7071 0.7071 -0.7071 -0.7071 784.9086 844.1959)" width="243.787" height="12.182"/>
		<g>
			<g id="XMLID_4_">
				<g>
					<polygon fill="#ED1F24" points="215.076,754.491 294.426,675.141 215.076,595.791 					"/>
				</g>
				<g>
				</g>
			</g>
		</g>
		<g>
			<g id="XMLID_2_">
				<g>
					<polygon fill="#F6DB0C" points="215.089,595.8 135.732,675.145 215.077,754.5 					"/>
				</g>
				<g>
				</g>
			</g>
		</g>
	</g>
	<path id="leftHand" d="M308.915,497.123c5.769,5.77,15.124,5.77,20.892,0.001l46.707-46.707c5.771-5.771,5.771-15.125,0.001-20.894
		l0,0c-5.769-5.77-15.125-5.772-20.896-0.002l-46.707,46.707C303.143,481.997,303.145,491.354,308.915,497.123L308.915,497.123z"/>
</g>
<g id="right">
	<g>
		
			<rect x="517.265" y="244.541" transform="matrix(0.7071 -0.7071 0.7071 0.7071 9.9822 525.3629)" width="243.785" height="12.182"/>
		<g>
			<g id="XMLID_3_">
				<g>
					<polygon fill="#ED1F24" points="808.991,248.09 729.642,327.44 650.291,248.09 					"/>
				</g>
				<g>
				</g>
			</g>
		</g>
		<g>
			<g id="XMLID_1_">
				<g>
					<polygon fill="#F6DB0C" points="650.3,248.103 729.645,168.747 809,248.091 					"/>
				</g>
				<g>
				</g>
			</g>
		</g>
	</g>
	<path id="rightHand" d="M481.66,411.429c5.768,5.768,15.124,5.768,20.895,0l46.704-46.704c5.772-5.776,5.772-15.131,0.004-20.899
		l0,0c-5.772-5.772-15.127-5.771-20.9,0.003l-46.704,46.703C475.889,396.301,475.887,405.656,481.66,411.429L481.66,411.429z"/>
</g>
</svg>
