<?xml version="1.0" encoding="utf-8"?>
<!-- Generator: Adobe Illustrator 16.0.0, SVG Export Plug-In . SVG Version: 6.00 Build 0)  -->
<!DOCTYPE svg PUBLIC "-//W3C//DTD SVG 1.1//EN" "http://www.w3.org/Graphics/SVG/1.1/DTD/svg11.dtd">
<svg version="1.1" id="Layer_1" xmlns="http://www.w3.org/2000/svg" xmlns:xlink="http://www.w3.org/1999/xlink" x="0px" y="0px"
	 width="850.39px" height="850.39px" viewBox="0 0 850.39 850.39" enable-background="new 0 0 850.39 850.39" xml:space="preserve">
<g id="body">
	<path d="M468.407,348.901c0,20.398-16.534,36.935-36.938,36.935c-20.398,0-36.937-16.537-36.937-36.935
		c0-20.401,16.539-36.938,36.937-36.938C451.873,311.963,468.407,328.5,468.407,348.901z"/>
	<path d="M468.407,551.786c0,13.464-14.827,24.387-33.128,24.387h-11.96c-18.297,0-33.131-10.923-33.131-24.387V416.31
		c0-13.47,14.834-24.388,33.131-24.388h11.96c18.301,0,33.128,10.918,33.128,24.388V551.786z"/>
</g>
<g id="left">
	<g>
		<rect x="41.042" y="405.375" width="243.787" height="12.182"/>
		<g>
			<g id="XMLID_4_">
				<g>
					<polygon fill="#ED1F24" points="41.049,529.759 153.267,529.759 153.268,417.542 					"/>
				</g>
				<g>
				</g>
			</g>
		</g>
		<g>
			<g id="XMLID_2_">
				<g>
					<polygon fill="#F6DB0C" points="153.27,417.557 41.052,417.548 41.043,529.767 					"/>
				</g>
				<g>
				</g>
			</g>
		</g>
	</g>
	<path id="leftHand" d="M289.391,414.127c-0.001,8.158,6.614,14.773,14.771,14.773h66.054c8.161,0,14.775-6.615,14.774-14.773l0,0
		c0.001-8.159-6.613-14.776-14.773-14.777h-66.054C296.005,399.35,289.391,405.968,289.391,414.127L289.391,414.127z"/>
</g>
<g id="right">
	<g>
		<rect x="483.846" y="78.234" width="12.183" height="243.785"/>
		<g>
			<g id="XMLID_3_">
				<g>
					<polygon fill="#ED1F24" points="608.23,78.239 608.23,190.457 496.013,190.457 					"/>
				</g>
				<g>
				</g>
			</g>
		</g>
		<g>
			<g id="XMLID_1_">
				<g>
					<polygon fill="#F6DB0C" points="496.028,190.46 496.021,78.242 608.238,78.233 					"/>
				</g>
				<g>
				</g>
			</g>
		</g>
	</g>
	<path id="rightHand" d="M492.271,425.195c8.157,0.002,14.772-6.615,14.774-14.773v-66.05c-0.002-8.166-6.617-14.781-14.774-14.781
		l0,0c-8.163,0-14.777,6.616-14.776,14.781l-0.001,66.049C477.493,418.581,484.106,425.196,492.271,425.195L492.271,425.195z"/>
</g>
</svg>
