<?xml version="1.0" encoding="utf-8"?>
<!-- Generator: Adobe Illustrator 16.0.0, SVG Export Plug-In . SVG Version: 6.00 Build 0)  -->
<!DOCTYPE svg PUBLIC "-//W3C//DTD SVG 1.1//EN" "http://www.w3.org/Graphics/SVG/1.1/DTD/svg11.dtd">
<svg version="1.1" id="Layer_1" xmlns="http://www.w3.org/2000/svg" xmlns:xlink="http://www.w3.org/1999/xlink" x="0px" y="0px"
	 width="850.39px" height="850.39px" viewBox="0 0 850.39 850.39" enable-background="new 0 0 850.39 850.39" xml:space="preserve">
<g id="body">
	<path d="M468.407,348.901c0,20.398-16.534,36.935-36.938,36.935c-20.398,0-36.937-16.537-36.937-36.935
		c0-20.401,16.539-36.938,36.937-36.938C451.873,311.963,468.407,328.5,468.407,348.901z"/>
	<path d="M468.407,551.786c0,13.464-14.827,24.387-33.128,24.387h-11.96c-18.297,0-33.131-10.923-33.131-24.387V416.31
		c0-13.47,14.834-24.388,33.131-24.388h11.96c18.301,0,33.128,10.918,33.128,24.388V551.786z"/>
</g>
<g id="left">
	<g>
		<rect x="41.042" y="405.375" width="243.787" height="12.182"/>
		<g>
			<g id="XMLID_4_">
				<g>
					<polygon fill="#ED1F24" points="41.049,529.759 153.267,529.759 153.268,417.542 					"/>
				</g>
				<g>
				</g>
			</g>
		</g>
		<g>
			<g id="XMLID_2_">
				<g>
					<polygon fill="#F6DB0C" points="153.27,417.557 41.052,417.548 41.043,529.767 					"/>
				</g>
				<g>
				</g>
			</g>
		</g>
	</g>
	<path id="leftHand" d="M289.391,414.127c-0.001,8.158,6.614,14.773,14.771,14.773h66.054c8.161,0,14.775-6.615,14.774-14.773l0,0
		c0.001-8.159-6.613-14.776-14.773-14.777h-66.054C296.005,399.35,289.391,405.968,289.391,414.127L289.391,414.127z"/>
</g>
<g id="right">
	<g>
		
			<rect x="516.025" y="242.91" transform="matrix(0.7071 -0.7071 0.7071 0.7071 10.7719 524.0084)" width="243.785" height="12.182"/>
		<g>
			<g id="XMLID_3_">
				<g>
					<polygon fill="#ED1F24" points="807.751,246.46 728.4,325.81 649.051,246.46 					"/>
				</g>
				<g>
				</g>
			</g>
		</g>
		<g>
			<g id="XMLID_1_">
				<g>
					<polygon fill="#F6DB0C" points="649.06,246.473 728.404,167.117 807.76,246.461 					"/>
				</g>
				<g>
				</g>
			</g>
		</g>
	</g>
	<path id="rightHand" d="M480.42,409.798c5.767,5.769,15.123,5.768,20.894,0l46.704-46.704c5.773-5.776,5.773-15.131,0.005-20.899
		l0,0c-5.771-5.772-15.127-5.771-20.9,0.003l-46.704,46.703C474.648,394.672,474.646,404.026,480.42,409.798L480.42,409.798z"/>
</g>
</svg>
