<?xml version="1.0" encoding="utf-8"?>
<!-- Generator: Adobe Illustrator 16.0.0, SVG Export Plug-In . SVG Version: 6.00 Build 0)  -->
<!DOCTYPE svg PUBLIC "-//W3C//DTD SVG 1.1//EN" "http://www.w3.org/Graphics/SVG/1.1/DTD/svg11.dtd">
<svg version="1.1" id="Layer_1" xmlns="http://www.w3.org/2000/svg" xmlns:xlink="http://www.w3.org/1999/xlink" x="0px" y="0px"
	 width="850.39px" height="850.39px" viewBox="0 0 850.39 850.39" enable-background="new 0 0 850.39 850.39" xml:space="preserve">
<g id="body">
	<path d="M468.407,348.901c0,20.398-16.534,36.935-36.938,36.935c-20.398,0-36.937-16.537-36.937-36.935
		c0-20.401,16.539-36.938,36.937-36.938C451.873,311.963,468.407,328.5,468.407,348.901z"/>
	<path d="M468.407,551.786c0,13.464-14.827,24.387-33.128,24.387h-11.96c-18.297,0-33.131-10.923-33.131-24.387V416.31
		c0-13.47,14.834-24.388,33.131-24.388h11.96c18.301,0,33.128,10.918,33.128,24.388V551.786z"/>
</g>
<g id="left">
	<g>
		<rect x="41.042" y="405.375" width="243.787" height="12.182"/>
		<g>
			<g id="XMLID_4_">
				<g>
					<polygon fill="#ED1F24" points="41.049,529.759 153.267,529.759 153.268,417.542 					"/>
				</g>
				<g>
				</g>
			</g>
		</g>
		<g>
			<g id="XMLID_2_">
				<g>
					<polygon fill="#F6DB0C" points="153.27,417.557 41.052,417.548 41.043,529.767 					"/>
				</g>
				<g>
				</g>
			</g>
		</g>
	</g>
	<path id="leftHand" d="M289.391,414.127c-0.001,8.158,6.614,14.773,14.771,14.773h66.054c8.161,0,14.775-6.615,14.774-14.773l0,0
		c0.001-8.159-6.613-14.776-14.773-14.777h-66.054C296.005,399.35,289.391,405.968,289.391,414.127L289.391,414.127z"/>
</g>
<g id="right">
	<g>
		
			<rect x="517.898" y="555.086" transform="matrix(0.7071 0.7071 -0.7071 0.7071 584.2027 -288.0355)" width="243.786" height="12.182"/>
		<g>
			<g id="XMLID_3_">
				<g>
					<polygon fill="#ED1F24" points="642.331,731.011 562.981,651.661 642.332,572.311 					"/>
				</g>
				<g>
				</g>
			</g>
		</g>
		<g>
			<g id="XMLID_1_">
				<g>
					<polygon fill="#F6DB0C" points="642.318,572.32 721.675,651.664 642.33,731.021 					"/>
				</g>
				<g>
				</g>
			</g>
		</g>
	</g>
	<path id="rightHand" d="M478.994,403.68c-5.77,5.766-5.768,15.123,0,20.893l46.704,46.705c5.775,5.773,15.131,5.772,20.898,0.005
		l0,0c5.773-5.772,5.771-15.127-0.003-20.901l-46.703-46.704C494.121,397.908,484.767,397.905,478.994,403.68L478.994,403.68z"/>
</g>
</svg>
