<?xml version="1.0" encoding="utf-8"?>
<!-- Generator: Adobe Illustrator 16.0.0, SVG Export Plug-In . SVG Version: 6.00 Build 0)  -->
<!DOCTYPE svg PUBLIC "-//W3C//DTD SVG 1.1//EN" "http://www.w3.org/Graphics/SVG/1.1/DTD/svg11.dtd">
<svg version="1.1" id="Layer_1" xmlns="http://www.w3.org/2000/svg" xmlns:xlink="http://www.w3.org/1999/xlink" x="0px" y="0px"
	 width="850.39px" height="850.39px" viewBox="0 0 850.39 850.39" enable-background="new 0 0 850.39 850.39" xml:space="preserve">
<g id="body">
	<path d="M468.407,348.901c0,20.398-16.534,36.935-36.938,36.935c-20.398,0-36.937-16.537-36.937-36.935
		c0-20.401,16.539-36.938,36.937-36.938C451.873,311.963,468.407,328.5,468.407,348.901z"/>
	<path d="M468.407,551.786c0,13.464-14.827,24.387-33.128,24.387h-11.96c-18.297,0-33.131-10.923-33.131-24.387V416.31
		c0-13.47,14.834-24.388,33.131-24.388h11.96c18.301,0,33.128,10.918,33.128,24.388V551.786z"/>
</g>
<g id="left">
	<g>
		
			<rect x="407.826" y="558.11" transform="matrix(0.7071 0.7071 -0.7071 0.7071 554.1035 -209.3174)" width="243.787" height="12.182"/>
		<g>
			<g id="XMLID_4_">
				<g>
					<polygon fill="#ED1F24" points="532.26,734.033 452.909,654.683 532.26,575.333 					"/>
				</g>
				<g>
				</g>
			</g>
		</g>
		<g>
			<g id="XMLID_2_">
				<g>
					<polygon fill="#F6DB0C" points="532.246,575.342 611.603,654.687 532.258,734.042 					"/>
				</g>
				<g>
				</g>
			</g>
		</g>
	</g>
	<path id="leftHand" d="M438.419,476.666c-5.768,5.769-15.123,5.769-20.89,0.001l-46.707-46.708
		c-5.771-5.771-5.772-15.125-0.002-20.893l0,0c5.77-5.77,15.125-5.773,20.896-0.002l46.706,46.706
		C444.191,461.539,444.189,470.896,438.419,476.666L438.419,476.666z"/>
</g>
<g id="right">
	<g>
		
			<rect x="213.032" y="560.474" transform="matrix(-0.7071 0.7071 -0.7071 -0.7071 972.374 730.3584)" width="243.786" height="12.181"/>
		<g>
			<g id="XMLID_3_">
				<g>
					<polygon fill="#ED1F24" points="332.384,736.398 411.733,657.049 332.384,577.698 					"/>
				</g>
				<g>
				</g>
			</g>
		</g>
		<g>
			<g id="XMLID_1_">
				<g>
					<polygon fill="#F6DB0C" points="332.396,577.708 253.041,657.052 332.385,736.408 					"/>
				</g>
				<g>
				</g>
			</g>
		</g>
	</g>
	<path id="rightHand" d="M495.722,409.066c5.77,5.766,5.768,15.123,0,20.893l-46.704,46.705c-5.775,5.773-15.131,5.773-20.898,0.006
		l0,0c-5.773-5.773-5.771-15.127,0.003-20.902l46.703-46.703C480.596,403.295,489.949,403.293,495.722,409.066L495.722,409.066z"/>
</g>
</svg>
