<?xml version="1.0" encoding="utf-8"?>
<!-- Generator: Adobe Illustrator 16.0.0, SVG Export Plug-In . SVG Version: 6.00 Build 0)  -->
<!DOCTYPE svg PUBLIC "-//W3C//DTD SVG 1.1//EN" "http://www.w3.org/Graphics/SVG/1.1/DTD/svg11.dtd">
<svg version="1.1" id="Layer_1" xmlns="http://www.w3.org/2000/svg" xmlns:xlink="http://www.w3.org/1999/xlink" x="0px" y="0px"
	 width="850.39px" height="850.39px" viewBox="0 0 850.39 850.39" enable-background="new 0 0 850.39 850.39" xml:space="preserve">
<g id="body">
	<path d="M468.407,348.901c0,20.398-16.534,36.935-36.938,36.935c-20.398,0-36.937-16.537-36.937-36.935
		c0-20.401,16.539-36.938,36.937-36.938C451.873,311.963,468.407,328.5,468.407,348.901z"/>
	<path d="M468.407,551.786c0,13.464-14.827,24.387-33.128,24.387h-11.96c-18.297,0-33.131-10.923-33.131-24.387V416.31
		c0-13.47,14.834-24.388,33.131-24.388h11.96c18.301,0,33.128,10.918,33.128,24.388V551.786z"/>
</g>
<g id="left">
	<g>
		
			<rect x="102.252" y="267.266" transform="matrix(-0.7071 -0.7071 0.7071 -0.7071 189.3497 625.1446)" width="243.787" height="12.182"/>
		<g>
			<g id="XMLID_4_">
				<g>
					<polygon fill="#ED1F24" points="54.313,270.816 133.664,350.167 213.014,270.816 					"/>
				</g>
				<g>
				</g>
			</g>
		</g>
		<g>
			<g id="XMLID_2_">
				<g>
					<polygon fill="#F6DB0C" points="213.004,270.83 133.66,191.474 54.304,270.818 					"/>
				</g>
				<g>
				</g>
			</g>
		</g>
	</g>
	<path id="leftHand" d="M311.681,364.657c-5.77,5.768-5.77,15.123-0.001,20.891l46.707,46.707
		c5.771,5.771,15.125,5.771,20.894,0.002l0,0c5.77-5.77,5.772-15.125,0.003-20.896l-46.707-46.707
		C326.807,358.884,317.451,358.887,311.681,364.657L311.681,364.657z"/>
</g>
<g id="right">
	<g>
		<rect x="487.098" y="78.233" width="12.182" height="243.786"/>
		<g>
			<g id="XMLID_3_">
				<g>
					<polygon fill="#ED1F24" points="611.482,78.238 611.482,190.456 499.265,190.456 					"/>
				</g>
				<g>
				</g>
			</g>
		</g>
		<g>
			<g id="XMLID_1_">
				<g>
					<polygon fill="#F6DB0C" points="499.28,190.458 499.271,78.241 611.489,78.232 					"/>
				</g>
				<g>
				</g>
			</g>
		</g>
	</g>
	<path id="rightHand" d="M495.521,425.194c8.156,0.002,14.771-6.615,14.773-14.773V344.37c-0.001-8.166-6.617-14.78-14.773-14.78
		l0,0c-8.164-0.001-14.777,6.615-14.777,14.781l-0.001,66.049C480.744,418.579,487.356,425.195,495.521,425.194L495.521,425.194z"/>
</g>
</svg>
