<?xml version="1.0" encoding="utf-8"?>
<!-- Generator: Adobe Illustrator 16.0.0, SVG Export Plug-In . SVG Version: 6.00 Build 0)  -->
<!DOCTYPE svg PUBLIC "-//W3C//DTD SVG 1.1//EN" "http://www.w3.org/Graphics/SVG/1.1/DTD/svg11.dtd">
<svg version="1.1" id="Layer_1" xmlns="http://www.w3.org/2000/svg" xmlns:xlink="http://www.w3.org/1999/xlink" x="0px" y="0px"
	 width="850.39px" height="850.39px" viewBox="0 0 850.39 850.39" enable-background="new 0 0 850.39 850.39" xml:space="preserve">
<g id="body">
	<path d="M468.407,348.901c0,20.398-16.534,36.935-36.938,36.935c-20.398,0-36.937-16.537-36.937-36.935
		c0-20.401,16.539-36.938,36.937-36.938C451.873,311.963,468.407,328.5,468.407,348.901z"/>
	<path d="M468.407,551.786c0,13.464-14.827,24.387-33.128,24.387h-11.96c-18.297,0-33.131-10.923-33.131-24.387V416.31
		c0-13.47,14.834-24.388,33.131-24.388h11.96c18.301,0,33.128,10.918,33.128,24.388V551.786z"/>
</g>
<g id="left">
	<g>
		<rect x="360.549" y="88.971" width="12.182" height="243.787"/>
		<g>
			<g id="XMLID_4_">
				<g>
					<polygon fill="#ED1F24" points="248.346,88.979 248.346,201.197 360.564,201.197 					"/>
				</g>
				<g>
				</g>
			</g>
		</g>
		<g>
			<g id="XMLID_2_">
				<g>
					<polygon fill="#F6DB0C" points="360.548,201.2 360.557,88.982 248.339,88.974 					"/>
				</g>
				<g>
				</g>
			</g>
		</g>
	</g>
	<path id="leftHand" d="M363.978,337.32c-8.158-0.001-14.773,6.614-14.773,14.771l0,66.054c0,8.162,6.614,14.777,14.772,14.775l0,0
		c8.16,0,14.777-6.613,14.778-14.774v-66.054C378.755,343.934,372.137,337.32,363.978,337.32L363.978,337.32z"/>
</g>
<g id="right">
	<g>
		
			<rect x="524.058" y="552.011" transform="matrix(0.7071 0.7071 -0.7071 0.7071 583.8328 -293.292)" width="243.786" height="12.182"/>
		<g>
			<g id="XMLID_3_">
				<g>
					<polygon fill="#ED1F24" points="648.494,727.937 569.144,648.586 648.494,569.236 					"/>
				</g>
				<g>
				</g>
			</g>
		</g>
		<g>
			<g id="XMLID_1_">
				<g>
					<polygon fill="#F6DB0C" points="648.48,569.245 727.837,648.59 648.493,727.945 					"/>
				</g>
				<g>
				</g>
			</g>
		</g>
	</g>
	<path id="rightHand" d="M485.154,400.605c-5.77,5.766-5.768,15.122,0,20.893l46.704,46.706c5.775,5.773,15.131,5.771,20.898,0.004
		l0,0c5.773-5.771,5.771-15.127-0.003-20.9l-46.703-46.705C500.28,394.833,490.927,394.831,485.154,400.605L485.154,400.605z"/>
</g>
</svg>
