<?xml version="1.0" encoding="utf-8"?>
<!-- Generator: Adobe Illustrator 16.0.0, SVG Export Plug-In . SVG Version: 6.00 Build 0)  -->
<!DOCTYPE svg PUBLIC "-//W3C//DTD SVG 1.1//EN" "http://www.w3.org/Graphics/SVG/1.1/DTD/svg11.dtd">
<svg version="1.1" id="Layer_1" xmlns="http://www.w3.org/2000/svg" xmlns:xlink="http://www.w3.org/1999/xlink" x="0px" y="0px"
	 width="850.39px" height="850.39px" viewBox="0 0 850.39 850.39" enable-background="new 0 0 850.39 850.39" xml:space="preserve">
<g id="body">
	<path d="M468.407,348.901c0,20.398-16.534,36.935-36.938,36.935c-20.398,0-36.937-16.537-36.937-36.935
		c0-20.401,16.539-36.938,36.937-36.938C451.873,311.963,468.407,328.5,468.407,348.901z"/>
	<path d="M468.407,551.786c0,13.464-14.827,24.387-33.128,24.387h-11.96c-18.297,0-33.131-10.923-33.131-24.387V416.31
		c0-13.47,14.834-24.388,33.131-24.388h11.96c18.301,0,33.128,10.918,33.128,24.388V551.786z"/>
</g>
<g id="left">
	<g>
		<rect x="573.952" y="410.762" width="243.787" height="12.182"/>
		<g>
			<g id="XMLID_4_">
				<g>
					<polygon fill="#ED1F24" points="817.73,535.146 705.513,535.146 705.513,422.929 					"/>
				</g>
				<g>
				</g>
			</g>
		</g>
		<g>
			<g id="XMLID_2_">
				<g>
					<polygon fill="#F6DB0C" points="705.51,422.944 817.728,422.936 817.736,535.154 					"/>
				</g>
				<g>
				</g>
			</g>
		</g>
	</g>
	<path id="leftHand" d="M569.39,419.515c0.001,8.158-6.614,14.773-14.771,14.773l-66.054-0.001
		c-8.162,0.001-14.777-6.613-14.775-14.772l0,0c0-8.16,6.613-14.777,14.774-14.778h66.053
		C562.775,404.738,569.39,411.355,569.39,419.515L569.39,419.515z"/>
</g>
<g id="right">
	<g>
		
			<rect x="93.873" y="251.715" transform="matrix(-0.7071 -0.7071 0.7071 -0.7071 186.0397 592.6715)" width="243.786" height="12.182"/>
		<g>
			<g id="XMLID_3_">
				<g>
					<polygon fill="#ED1F24" points="45.932,255.264 125.282,334.614 204.632,255.264 					"/>
				</g>
				<g>
				</g>
			</g>
		</g>
		<g>
			<g id="XMLID_1_">
				<g>
					<polygon fill="#F6DB0C" points="204.623,255.277 125.279,175.921 45.923,255.265 					"/>
				</g>
				<g>
				</g>
			</g>
		</g>
	</g>
	<path id="rightHand" d="M373.264,418.602c-5.766,5.77-15.122,5.768-20.893,0l-46.705-46.704c-5.773-5.775-5.772-15.13-0.005-20.898
		l0,0c5.772-5.773,15.127-5.771,20.901,0.003l46.704,46.703C379.035,403.476,379.038,412.83,373.264,418.602L373.264,418.602z"/>
</g>
</svg>
